{"title":"Edge.Of.Tommorow.2014.CamRip.DivX.Mp3.700MB.CD-R.By.RE-CODER","uid":10331399,"size":740889712,"categoryP":"video","categoryS":"movies","magnet":"?xt=urn:btih:1178c35ccefb6d659bca1baad7ea5888ac18aabb&amp;dn=Edge.Of.Tommorow.2014.CamRip.DivX.Mp3.700MB.CD-R.By.RE-CODER&amp;tr=udp%3A%2F%2Ftracker.openbittorrent.com%3A80&amp;tr=udp%3A%2F%2Fopen.demonii.com%3A1337&amp;tr=udp%3A%2F%2Ftracker.coppersurfer.tk%3A6969&amp;tr=udp%3A%2F%2Fexodus.desync.com%3A6969","seeders":0,"leechers":4,"uploader":"RE-CODER","files":9,"time":1402415417,"description":"By RE-CODER\n\nIts a CamRip\nYour comments will be appreciated.\nSeed for others too... :)\nSeed and Enjoy.\n\nMovie: Edge Of Tommorow\nYear: 2014\nQuality: Cam\nScreens: Yes Included\nSample: Yes Included\nSubs: None\n\nContainer: AVI\nVideo: DivX\nAudio: Mp3\nSize: 700MB CD-R\n\nRecommended Player's: VLC, MPC.\n\nGeneral\nComplete name                            : Edge Of Tommorow.avi\nFormat                                   : AVI\nFormat/Info                              : Audio Video Interleave\nFile size                                : 700 MiB\nDuration                                 : 1h 45mn\nOverall bit rate                         : 927 Kbps\n\nVideo\nID                                       : 0\nFormat                                   : MPEG-4 Visual\nCodec ID                                 : DX50\nCodec ID/Hint                            : DivX 5\nDuration                                 : 1h 45mn\nBit rate                                 : 789 Kbps\nWidth                                    : 640 pixels\nHeight                                   : 272 pixels\nDisplay aspect ratio                     : 2.35:1\nFrame rate                               : 23.976 fps\nColor space                              : YUV\nChroma subsampling                       : 4:2:0\nBit depth                                : 8 bits\nScan type                                : Progressive\nCompression mode                         : Lossy\nBits/(Pixel*Frame)                       : 0.189\nStream size                              : 596 MiB (85%)\n\nAudio\nID                                       : 1\nFormat                                   : MPEG Audio\nFormat version                           : Version 1\nFormat profile                           : Layer 3\nMode                                     : Joint stereo\nMode extension                           : MS Stereo\nCodec ID                                 : 55\nCodec ID/Hint                            : MP3\nDuration                                 : 1h 45mn\nBit rate mode                            : Constant\nBit rate                                 : 128 Kbps\nChannel(s)                               : 2 channels\nSampling rate                            : 48.0 KHz\nCompression mode                         : Lossy\nStream size                              : 96.7 MiB (14%)","torrent":{"xt":"urn:btih:1178c35ccefb6d659bca1baad7ea5888ac18aabb","amp;dn":"Edge.Of.Tommorow.2014.CamRip.DivX.Mp3.700MB.CD-R.By.RE-CODER","amp;tr":["udp%3A%2F%2Ftracker.openbittorrent.com%3A80","udp%3A%2F%2Fopen.demonii.com%3A1337","udp%3A%2F%2Ftracker.coppersurfer.tk%3A6969","udp%3A%2F%2Fexodus.desync.com%3A6969"],"infoHash":"1178c35ccefb6d659bca1baad7ea5888ac18aabb","infoHashBuffer":{"type":"Buffer","data":[17,120,195,92,206,251,109,101,155,202,27,170,215,234,88,136,172,24,170,187]},"announce":[],"urlList":[]}}